<svg width="17" height="35" viewBox="0 0 17 35" fill="none" xmlns="http://www.w3.org/2000/svg">
<path d="M16.017 0.0909081V35H8.63636V7.09659H8.43182L0.4375 12.108V5.5625L9.07955 0.0909081H16.017Z" fill="#F9F9F9"/>
<path d="M16.017 0.0909081H18.017V-1.90909H16.017V0.0909081ZM16.017 35V37H18.017V35H16.017ZM8.63636 35H6.63636V37H8.63636V35ZM8.63636 7.09659H10.6364V5.09659H8.63636V7.09659ZM8.43182 7.09659V5.09659H7.85677L7.36955 5.40201L8.43182 7.09659ZM0.4375 12.108H-1.5625V15.7222L1.49977 13.8025L0.4375 12.108ZM0.4375 5.5625L-0.632366 3.87271L-1.5625 4.46161V5.5625H0.4375ZM9.07955 0.0909081V-1.90909H8.49964L8.00968 -1.59888L9.07955 0.0909081ZM14.017 0.0909081V35H18.017V0.0909081H14.017ZM16.017 33H8.63636V37H16.017V33ZM10.6364 35V7.09659H6.63636V35H10.6364ZM8.63636 5.09659H8.43182V9.09659H8.63636V5.09659ZM7.36955 5.40201L-0.624771 10.4134L1.49977 13.8025L9.49409 8.79116L7.36955 5.40201ZM2.4375 12.108V5.5625H-1.5625V12.108H2.4375ZM1.50737 7.25229L10.1494 1.7807L8.00968 -1.59888L-0.632366 3.87271L1.50737 7.25229ZM9.07955 2.09091H16.017V-1.90909H9.07955V2.09091Z" fill="#27BDBE"/>
</svg>
