<svg width="26" height="37" viewBox="0 0 26 37" fill="none" xmlns="http://www.w3.org/2000/svg">
<path d="M0.829546 36.3846V31.0665L13.2557 19.5608C14.3125 18.5381 15.1989 17.6176 15.9148 16.7994C16.642 15.9812 17.1932 15.1801 17.5682 14.396C17.9432 13.6006 18.1307 12.7426 18.1307 11.8221C18.1307 10.7994 17.8977 9.91873 17.4318 9.1801C16.9659 8.4301 16.3295 7.85623 15.5227 7.45851C14.7159 7.04942 13.8011 6.84487 12.7784 6.84487C11.7102 6.84487 10.7784 7.06078 9.98295 7.4926C9.1875 7.92442 8.57386 8.54373 8.14205 9.35055C7.71023 10.1574 7.49432 11.1176 7.49432 12.2312H0.488636C0.488636 9.94714 1.00568 7.96419 2.03977 6.28237C3.07386 4.60055 4.52273 3.29942 6.38636 2.37896C8.25 1.45851 10.3977 0.998279 12.8295 0.998279C15.3295 0.998279 17.5057 1.44146 19.358 2.32782C21.2216 3.20282 22.6705 4.41873 23.7045 5.97555C24.7386 7.53237 25.2557 9.31646 25.2557 11.3278C25.2557 12.646 24.9943 13.9471 24.4716 15.2312C23.9602 16.5153 23.0455 17.9415 21.7273 19.5096C20.4091 21.0665 18.5511 22.9358 16.1534 25.1176L11.0568 30.1119V30.3506H25.7159V36.3846H0.829546Z" fill="#F9F9F9"/>
<path d="M0.829545 36.3846H-1.17045V38.3846H0.829545V36.3846ZM0.829545 31.0665L-0.52927 29.5989L-1.17045 30.1926V31.0665H0.829545ZM13.2557 19.5608L14.6145 21.0283L14.6307 21.0133L14.6465 20.998L13.2557 19.5608ZM15.9148 16.7994L14.42 15.4707L14.4148 15.4765L14.4096 15.4824L15.9148 16.7994ZM17.5682 14.396L19.3725 15.2589L19.3772 15.2488L17.5682 14.396ZM17.4318 9.1801L15.7329 10.2355L15.7402 10.2471L17.4318 9.1801ZM15.5227 7.45851L14.6183 9.24231L14.6283 9.2474L14.6384 9.25238L15.5227 7.45851ZM8.14205 9.35055L9.90537 10.2943L9.90538 10.2943L8.14205 9.35055ZM7.49432 12.2312V14.2312H9.49432V12.2312H7.49432ZM0.488636 12.2312H-1.51136V14.2312H0.488636V12.2312ZM2.03977 6.28237L3.74348 7.32992H3.74348L2.03977 6.28237ZM6.38636 2.37896L5.5007 0.585753L5.50069 0.585753L6.38636 2.37896ZM19.358 2.32782L18.4947 4.13191L18.5013 4.13508L18.508 4.13821L19.358 2.32782ZM23.7045 5.97555L22.0386 7.08214L22.0386 7.08214L23.7045 5.97555ZM24.4716 15.2312L22.6192 14.4772L22.6163 14.4842L22.6135 14.4913L24.4716 15.2312ZM21.7273 19.5096L23.2536 20.802L23.2582 20.7965L21.7273 19.5096ZM16.1534 25.1176L14.8074 23.6384L14.78 23.6632L14.7536 23.6891L16.1534 25.1176ZM11.0568 30.1119L9.65701 28.6834L9.05682 29.2716V30.1119H11.0568ZM11.0568 30.3506H9.05682V32.3506H11.0568V30.3506ZM25.7159 30.3506H27.7159V28.3506H25.7159V30.3506ZM25.7159 36.3846V38.3846H27.7159V36.3846H25.7159ZM2.82955 36.3846V31.0665H-1.17045V36.3846H2.82955ZM2.18836 32.534L14.6145 21.0283L11.8969 18.0933L-0.52927 29.5989L2.18836 32.534ZM14.6465 20.998C15.7303 19.9492 16.6575 18.9878 17.4199 18.1164L14.4096 15.4824C13.7403 16.2474 12.8947 17.1269 11.8648 18.1236L14.6465 20.998ZM17.4096 18.1281C18.2306 17.2045 18.8989 16.2491 19.3725 15.2589L15.7639 13.5331C15.4875 14.1111 15.0534 14.758 14.42 15.4707L17.4096 18.1281ZM19.3772 15.2488C19.8839 14.1742 20.1307 13.0234 20.1307 11.8221H16.1307C16.1307 12.4618 16.0025 13.0269 15.7591 13.5432L19.3772 15.2488ZM20.1307 11.8221C20.1307 10.4875 19.8232 9.22251 19.1234 8.11309L15.7402 10.2471C15.9723 10.615 16.1307 11.1114 16.1307 11.8221H20.1307ZM19.1307 8.12473C18.4637 7.05105 17.5424 6.22431 16.407 5.66463L14.6384 9.25238C15.1167 9.48816 15.4681 9.80914 15.7329 10.2355L19.1307 8.12473ZM16.4272 5.6747C15.3053 5.10588 14.074 4.84487 12.7784 4.84487V8.84487C13.5282 8.84487 14.1265 8.99295 14.6183 9.24231L16.4272 5.6747ZM12.7784 4.84487C11.4371 4.84487 10.1658 5.11767 9.02877 5.73489L10.9371 9.2503C11.3911 9.00389 11.9834 8.84487 12.7784 8.84487V4.84487ZM9.02877 5.73489C7.88586 6.35533 6.99277 7.25949 6.37872 8.4068L9.90538 10.2943C10.155 9.82798 10.4891 9.4935 10.9371 9.2503L9.02877 5.73489ZM6.37872 8.4068C5.76125 9.56048 5.49432 10.8591 5.49432 12.2312H9.49432C9.49432 11.3761 9.6592 10.7543 9.90537 10.2943L6.37872 8.4068ZM7.49432 10.2312H0.488636V14.2312H7.49432V10.2312ZM2.48864 12.2312C2.48864 10.2579 2.93189 8.64987 3.74348 7.32992L0.336061 5.23482C-0.92053 7.2785 -1.51136 9.63636 -1.51136 12.2312H2.48864ZM3.74348 7.32992C4.56985 5.98595 5.72713 4.9352 7.27203 4.17217L5.50069 0.585753C3.31833 1.66363 1.57788 3.21515 0.336061 5.23482L3.74348 7.32992ZM7.27203 4.17217C8.81711 3.40905 10.6529 2.99828 12.8295 2.99828V-1.00172C10.1426 -1.00172 7.68289 -0.492038 5.5007 0.585753L7.27203 4.17217ZM12.8295 2.99828C15.0946 2.99828 16.9641 3.39949 18.4947 4.13191L20.2213 0.523744C18.0473 -0.51657 15.5645 -1.00172 12.8295 -1.00172V2.99828ZM18.508 4.13821C20.075 4.87398 21.2272 5.86059 22.0386 7.08214L25.3705 4.86896C24.1137 2.97688 22.3681 1.53167 20.208 0.517437L18.508 4.13821ZM22.0386 7.08214C22.8381 8.28579 23.2557 9.67874 23.2557 11.3278H27.2557C27.2557 8.95418 26.6392 6.77895 25.3705 4.86896L22.0386 7.08214ZM23.2557 11.3278C23.2557 12.3742 23.0496 13.4199 22.6192 14.4772L26.324 15.9853C26.9391 14.4743 27.2557 12.9178 27.2557 11.3278H23.2557ZM22.6135 14.4913C22.2095 15.5057 21.4367 16.7471 20.1963 18.2227L23.2582 20.7965C24.6542 19.1358 25.7109 17.5249 26.3297 15.9712L22.6135 14.4913ZM20.2009 18.2173C18.9614 19.6812 17.1736 21.4852 14.8074 23.6384L17.4995 26.5968C19.9287 24.3864 21.8568 22.4517 23.2536 20.802L20.2009 18.2173ZM14.7536 23.6891L9.65701 28.6834L12.4566 31.5404L17.5532 26.5461L14.7536 23.6891ZM9.05682 30.1119V30.3506H13.0568V30.1119H9.05682ZM11.0568 32.3506H25.7159V28.3506H11.0568V32.3506ZM23.7159 30.3506V36.3846H27.7159V30.3506H23.7159ZM25.7159 34.3846H0.829545V38.3846H25.7159V34.3846Z" fill="#27BDBE"/>
</svg>
