<svg width="28" height="37" viewBox="0 0 28 37" fill="none" xmlns="http://www.w3.org/2000/svg">
<path d="M13.733 36.6074C11.1875 36.6074 8.92045 36.1699 6.93182 35.2949C4.95455 34.4085 3.39205 33.1926 2.24432 31.6472C1.10795 30.0904 0.522727 28.2949 0.488636 26.2608H7.92045C7.96591 27.1131 8.24432 27.8631 8.75568 28.5108C9.27841 29.1472 9.97159 29.6415 10.8352 29.9938C11.6989 30.346 12.6705 30.5222 13.75 30.5222C14.875 30.5222 15.8693 30.3233 16.733 29.9256C17.5966 29.5279 18.2727 28.9767 18.7614 28.2722C19.25 27.5676 19.4943 26.7551 19.4943 25.8347C19.4943 24.9029 19.233 24.079 18.7102 23.3631C18.1989 22.6358 17.4602 22.0676 16.4943 21.6585C15.5398 21.2494 14.4034 21.0449 13.0852 21.0449H9.82955V15.6244H13.0852C14.1989 15.6244 15.1818 15.4313 16.0341 15.0449C16.8977 14.6585 17.5682 14.1244 18.0455 13.4426C18.5227 12.7494 18.7614 11.9426 18.7614 11.0222C18.7614 10.1472 18.5511 9.38013 18.1307 8.72104C17.7216 8.05058 17.142 7.52785 16.392 7.15285C15.6534 6.77785 14.7898 6.59035 13.8011 6.59035C12.8011 6.59035 11.8864 6.77217 11.0568 7.13581C10.2273 7.48808 9.5625 7.99376 9.0625 8.65285C8.5625 9.31194 8.29545 10.0847 8.26136 10.971H1.1875C1.22159 8.95967 1.79545 7.18694 2.90909 5.65285C4.02273 4.11876 5.52273 2.9199 7.40909 2.05626C9.30682 1.18126 11.4489 0.743762 13.8352 0.743762C16.2443 0.743762 18.3523 1.18126 20.1591 2.05626C21.9659 2.93126 23.3693 4.11308 24.3693 5.60172C25.3807 7.07899 25.8807 8.73808 25.8693 10.579C25.8807 12.5335 25.2727 14.1642 24.0455 15.471C22.8295 16.7779 21.2443 17.6074 19.2898 17.9597V18.2324C21.858 18.5619 23.8125 19.454 25.1534 20.9085C26.5057 22.3517 27.1761 24.1585 27.1648 26.329C27.1761 28.3176 26.6023 30.0847 25.4432 31.6301C24.2955 33.1756 22.7102 34.3915 20.6875 35.2779C18.6648 36.1642 16.3466 36.6074 13.733 36.6074Z" fill="#F9F9F9"/>
<path d="M6.93182 35.2949L6.11369 37.12L6.12634 37.1255L6.93182 35.2949ZM2.24432 31.6472L0.628888 32.8263L0.633751 32.833L0.638669 32.8396L2.24432 31.6472ZM0.488636 26.2608V24.2608H-1.54516L-1.51108 26.2943L0.488636 26.2608ZM7.92045 26.2608L9.91762 26.1543L9.81663 24.2608H7.92045V26.2608ZM8.75568 28.5108L7.18592 29.7501L7.19793 29.7653L7.21023 29.7803L8.75568 28.5108ZM10.8352 29.9938L10.0799 31.8456H10.0799L10.8352 29.9938ZM16.733 29.9256L15.8964 28.109L16.733 29.9256ZM18.7614 28.2722L20.4048 29.412L18.7614 28.2722ZM18.7102 23.3631L17.0742 24.5134L17.0844 24.528L17.095 24.5425L18.7102 23.3631ZM16.4943 21.6585L15.7065 23.4968L15.7143 23.5002L16.4943 21.6585ZM9.82955 21.0449H7.82955V23.0449H9.82955V21.0449ZM9.82955 15.6244V13.6244H7.82955V15.6244H9.82955ZM16.0341 15.0449L15.2174 13.2192L15.2083 13.2233L16.0341 15.0449ZM18.0455 13.4426L19.6839 14.5896L19.6884 14.5832L19.6928 14.5768L18.0455 13.4426ZM18.1307 8.72104L16.4234 9.76276L16.4338 9.77982L16.4446 9.79667L18.1307 8.72104ZM16.392 7.15285L15.4866 8.93622L15.4976 8.94171L16.392 7.15285ZM11.0568 7.13581L11.8386 8.9767L11.8492 8.97218L11.8598 8.96755L11.0568 7.13581ZM9.0625 8.65285L10.6559 9.86163L10.6559 9.86163L9.0625 8.65285ZM8.26136 10.971V12.971H10.1859L10.2599 11.0479L8.26136 10.971ZM1.1875 10.971L-0.812213 10.9371L-0.846686 12.971H1.1875V10.971ZM2.90909 5.65285L4.5276 6.82777L4.5276 6.82777L2.90909 5.65285ZM7.40909 2.05626L8.24165 3.87474L8.24652 3.8725L7.40909 2.05626ZM20.1591 2.05626L21.0308 0.25623V0.25623L20.1591 2.05626ZM24.3693 5.60172L22.7091 6.71696L22.714 6.72427L22.719 6.73154L24.3693 5.60172ZM25.8693 10.579L23.8694 10.5666L23.8693 10.5786L23.8694 10.5906L25.8693 10.579ZM24.0455 15.471L22.5876 14.1019L22.5812 14.1087L24.0455 15.471ZM19.2898 17.9597L18.935 15.9914L17.2898 16.2879V17.9597H19.2898ZM19.2898 18.2324H17.2898V19.9922L19.0352 20.2161L19.2898 18.2324ZM25.1534 20.9085L23.6829 22.2641L23.6884 22.2701L23.694 22.276L25.1534 20.9085ZM27.1648 26.329L25.1648 26.3185L25.1647 26.3295L25.1648 26.3404L27.1648 26.329ZM25.4432 31.6301L23.8432 30.4301L23.8375 30.4377L25.4432 31.6301ZM20.6875 35.2779L19.8848 33.446L20.6875 35.2779ZM13.733 34.6074C11.4178 34.6074 9.43229 34.2101 7.7373 33.4643L6.12634 37.1255C8.40862 38.1297 10.9572 38.6074 13.733 38.6074V34.6074ZM7.74993 33.4699C6.04504 32.7056 4.76904 31.6923 3.84997 30.4547L0.638669 32.8396C2.01505 34.6929 3.86405 36.1115 6.11371 37.1199L7.74993 33.4699ZM3.85975 30.468C2.98046 29.2634 2.51594 27.8733 2.48836 26.2273L-1.51108 26.2943C-1.47049 28.7165 -0.764546 30.9173 0.628888 32.8263L3.85975 30.468ZM0.488636 28.2608H7.92045V24.2608H0.488636V28.2608ZM5.92329 26.3673C5.98995 27.6172 6.40929 28.7664 7.18592 29.7501L10.3254 27.2715C10.0793 26.9598 9.94186 26.6089 9.91762 26.1543L5.92329 26.3673ZM7.21023 29.7803C7.97047 30.7058 8.9499 31.3847 10.0799 31.8456L11.5906 28.1419C10.9933 27.8983 10.5863 27.5885 10.3011 27.2413L7.21023 29.7803ZM10.0799 31.8456C11.218 32.3099 12.4517 32.5222 13.75 32.5222V28.5222C12.8892 28.5222 12.1797 28.3822 11.5906 28.1419L10.0799 31.8456ZM13.75 32.5222C15.1115 32.5222 16.3999 32.2809 17.5696 31.7422L15.8964 28.109C15.3388 28.3658 14.6385 28.5222 13.75 28.5222V32.5222ZM17.5696 31.7422C18.7215 31.2117 19.6909 30.4413 20.4048 29.412L17.1179 27.1324C16.8546 27.5121 16.4717 27.844 15.8964 28.109L17.5696 31.7422ZM20.4048 29.412C21.1429 28.3477 21.4943 27.131 21.4943 25.8347H17.4943C17.4943 26.3793 17.3571 26.7876 17.1179 27.1324L20.4048 29.412ZM21.4943 25.8347C21.4943 24.502 21.1115 23.2602 20.3255 22.1837L17.095 24.5425C17.3544 24.8978 17.4943 25.3037 17.4943 25.8347H21.4943ZM20.3463 22.2127C19.5837 21.1282 18.5218 20.3453 17.2743 19.8169L15.7143 23.5002C16.3986 23.79 16.814 24.1434 17.0742 24.5134L20.3463 22.2127ZM17.2822 19.8202C16.0213 19.2799 14.604 19.0449 13.0852 19.0449V23.0449C14.2028 23.0449 15.0582 23.219 15.7065 23.4968L17.2822 19.8202ZM13.0852 19.0449H9.82955V23.0449H13.0852V19.0449ZM11.8295 21.0449V15.6244H7.82955V21.0449H11.8295ZM9.82955 17.6244H13.0852V13.6244H9.82955V17.6244ZM13.0852 17.6244C14.4303 17.6244 15.7036 17.3906 16.8599 16.8665L15.2083 13.2233C14.66 13.4719 13.9674 13.6244 13.0852 13.6244V17.6244ZM16.8508 16.8705C17.9986 16.3571 18.972 15.6066 19.6839 14.5896L16.407 12.2957C16.1644 12.6423 15.7969 12.96 15.2174 13.2193L16.8508 16.8705ZM19.6928 14.5768C20.4213 13.5187 20.7614 12.308 20.7614 11.0222H16.7614C16.7614 11.5773 16.6242 11.9802 16.3982 12.3084L19.6928 14.5768ZM20.7614 11.0222C20.7614 9.81293 20.4661 8.66317 19.8168 7.6454L16.4446 9.79667C16.6362 10.0971 16.7614 10.4814 16.7614 11.0222H20.7614ZM19.838 7.67931C19.22 6.66659 18.3485 5.895 17.2865 5.364L15.4976 8.94171C15.9356 9.16071 16.2231 9.43457 16.4234 9.76276L19.838 7.67931ZM17.2974 5.36952C16.2289 4.82705 15.044 4.59035 13.8011 4.59035V8.59035C14.5355 8.59035 15.0779 8.72866 15.4867 8.93619L17.2974 5.36952ZM13.8011 4.59035C12.5537 4.59035 11.3618 4.81841 10.2539 5.30407L11.8598 8.96755C12.4109 8.72594 13.0486 8.59035 13.8011 8.59035V4.59035ZM10.2751 5.29492C9.15403 5.77098 8.1985 6.48262 7.46912 7.44408L10.6559 9.86163C10.9265 9.5049 11.3005 9.20518 11.8386 8.9767L10.2751 5.29492ZM7.46912 7.44408C6.70295 8.45403 6.3115 9.62909 6.26284 10.8942L10.2599 11.0479C10.2794 10.5402 10.422 10.1699 10.6559 9.86163L7.46912 7.44408ZM8.26136 8.97104H1.1875V12.971H8.26136V8.97104ZM3.18721 11.0049C3.2148 9.37746 3.67027 8.00879 4.5276 6.82777L1.29058 4.47794C-0.079356 6.3651 -0.771615 8.54188 -0.812213 10.9371L3.18721 11.0049ZM4.5276 6.82777C5.42027 5.59808 6.63795 4.60896 8.24165 3.87474L6.57654 0.237787C4.40751 1.23084 2.62519 2.63945 1.29058 4.47794L4.5276 6.82777ZM8.24652 3.8725C9.84681 3.13464 11.697 2.74376 13.8352 2.74376V-1.25624C11.2007 -1.25624 8.76682 -0.772114 6.57166 0.240025L8.24652 3.8725ZM13.8352 2.74376C16.002 2.74376 17.8013 3.13663 19.2874 3.85629L21.0308 0.25623C18.9032 -0.774108 16.4866 -1.25624 13.8352 -1.25624V2.74376ZM19.2874 3.85629C20.8143 4.59576 21.9295 5.55635 22.7091 6.71696L26.0295 4.48647C24.8092 2.66981 23.1175 1.26677 21.0308 0.25623L19.2874 3.85629ZM22.719 6.73154C23.4934 7.86261 23.8783 9.12091 23.8694 10.5666L27.8693 10.5913C27.8831 8.35525 27.268 6.29537 26.0196 4.47189L22.719 6.73154ZM23.8694 10.5906C23.878 12.083 23.4307 13.2041 22.5876 14.1019L25.5033 16.8402C27.1148 15.1243 27.8833 12.9841 27.8693 10.5674L23.8694 10.5906ZM22.5812 14.1087C21.693 15.0633 20.5144 15.7067 18.935 15.9914L19.6445 19.928C21.9743 19.5081 23.9661 18.4924 25.5097 16.8334L22.5812 14.1087ZM17.2898 17.9597V18.2324H21.2898V17.9597H17.2898ZM19.0352 20.2161C21.2829 20.5046 22.7482 21.2502 23.6829 22.2641L26.6239 19.5529C24.8768 17.6578 22.433 16.6193 19.5443 16.2487L19.0352 20.2161ZM23.694 22.276C24.661 23.3081 25.1738 24.6053 25.1648 26.3185L29.1647 26.3395C29.1785 23.7118 28.3504 21.3954 26.6128 19.541L23.694 22.276ZM25.1648 26.3404C25.1738 27.9062 24.7321 29.2449 23.8432 30.4301L27.0432 32.8301C28.4724 30.9244 29.1785 28.729 29.1647 26.3176L25.1648 26.3404ZM23.8375 30.4377C22.9262 31.6649 21.6364 32.6785 19.8848 33.446L21.4902 37.1097C23.7841 36.1045 25.6647 34.6863 27.0488 32.8226L23.8375 30.4377ZM19.8848 33.446C18.1572 34.203 16.1202 34.6074 13.733 34.6074V38.6074C16.5729 38.6074 19.1723 38.1254 21.4902 37.1097L19.8848 33.446Z" fill="#27BDBE"/>
</svg>
