<svg width="29" height="36" viewBox="0 0 29 36" fill="none" xmlns="http://www.w3.org/2000/svg">
<path d="M0.301136 29.4318V23.6193L14.875 0.659023H19.8864V8.70448H16.9205L7.73295 23.2443V23.517H28.4432V29.4318H0.301136ZM17.0568 35.5681V27.659L17.1932 25.0852V0.659023H24.1136V35.5681H17.0568Z" fill="#F9F9F9"/>
<path d="M0.301136 29.4318H-1.69886V31.4318H0.301136V29.4318ZM0.301136 23.6193L-1.38742 22.5474L-1.69886 23.0381V23.6193H0.301136ZM14.875 0.659023V-1.34098H13.7756L13.1864 -0.41278L14.875 0.659023ZM19.8864 0.659023H21.8864V-1.34098H19.8864V0.659023ZM19.8864 8.70448V10.7045H21.8864V8.70448H19.8864ZM16.9205 8.70448V6.70448H15.8184L15.2297 7.63612L16.9205 8.70448ZM7.73295 23.2443L6.04221 22.1759L5.73295 22.6653V23.2443H7.73295ZM7.73295 23.517H5.73295V25.517H7.73295V23.517ZM28.4432 23.517H30.4432V21.517H28.4432V23.517ZM28.4432 29.4318V31.4318H30.4432V29.4318H28.4432ZM17.0568 35.5681H15.0568V37.5681H17.0568V35.5681ZM17.0568 27.659L15.0596 27.5532L15.0568 27.6061V27.659H17.0568ZM17.1932 25.0852L19.1904 25.191L19.1932 25.1381V25.0852H17.1932ZM17.1932 0.659023V-1.34098H15.1932V0.659023H17.1932ZM24.1136 0.659023H26.1136V-1.34098H24.1136V0.659023ZM24.1136 35.5681V37.5681H26.1136V35.5681H24.1136ZM2.30114 29.4318V23.6193H-1.69886V29.4318H2.30114ZM1.9897 24.6911L16.5636 1.73083L13.1864 -0.41278L-1.38742 22.5474L1.9897 24.6911ZM14.875 2.65902H19.8864V-1.34098H14.875V2.65902ZM17.8864 0.659023V8.70448H21.8864V0.659023H17.8864ZM19.8864 6.70448H16.9205V10.7045H19.8864V6.70448ZM15.2297 7.63612L6.04221 22.1759L9.4237 24.3126L18.6112 9.77284L15.2297 7.63612ZM5.73295 23.2443V23.517H9.73295V23.2443H5.73295ZM7.73295 25.517H28.4432V21.517H7.73295V25.517ZM26.4432 23.517V29.4318H30.4432V23.517H26.4432ZM28.4432 27.4318H0.301136V31.4318H28.4432V27.4318ZM19.0568 35.5681V27.659H15.0568V35.5681H19.0568ZM19.054 27.7648L19.1904 25.191L15.196 24.9793L15.0596 27.5532L19.054 27.7648ZM19.1932 25.0852V0.659023H15.1932V25.0852H19.1932ZM17.1932 2.65902H24.1136V-1.34098H17.1932V2.65902ZM22.1136 0.659023V35.5681H26.1136V0.659023H22.1136ZM24.1136 33.5681H17.0568V37.5681H24.1136V33.5681Z" fill="#27BDBE"/>
</svg>
