<svg width="600" height="170" viewBox="0 0 600 170" fill="none" xmlns="http://www.w3.org/2000/svg">
<rect width="600" height="16" fill="#27BDBE"/>
<path d="M220.325 137L231.825 110.7C232.325 109.7 233.225 108.9 234.325 108.7C234.325 108.7 234.425 108.7 234.425 108.8C234.625 109.1 234.925 109.5 235.125 109.9L238.225 118L234.225 126.9L230.325 137H220.325Z" fill="#00758D"/>
<path d="M246.925 137L243.025 126.9L236.525 109.8C236.125 108.9 235.725 108.6 235.625 108.6H242.225C243.625 108.6 244.825 109.4 245.325 110.7L256.825 137H246.925Z" fill="#00758D"/>
<path d="M112.925 137.7C109.925 137.7 107.125 137.1 104.725 135.8C102.325 134.5 100.425 132.8 99.025 130.5C97.625 128.3 96.925 125.7 96.925 122.9C96.925 120.1 97.625 117.5 99.025 115.3C100.425 113.1 102.325 111.3 104.725 110C107.125 108.7 109.925 108.1 112.925 108.1C115.925 108.1 118.725 108.7 121.125 110C123.525 111.3 125.425 113 126.825 115.3C128.225 117.5 128.925 120.1 128.925 122.9C128.925 125.7 128.225 128.3 126.825 130.5C125.425 132.7 123.525 134.5 121.125 135.8C118.725 137 115.925 137.7 112.925 137.7ZM112.925 115.8C111.725 115.8 110.725 116.1 109.725 116.7C108.725 117.3 108.025 118.1 107.425 119.1C106.825 120.1 106.625 121.4 106.625 122.8C106.625 124.2 106.925 125.5 107.425 126.5C108.025 127.6 108.725 128.4 109.725 128.9C110.725 129.5 111.725 129.8 112.925 129.8C114.125 129.8 115.125 129.5 116.125 128.9C117.125 128.3 117.825 127.5 118.425 126.5C119.025 125.5 119.225 124.2 119.225 122.8C119.225 121.4 118.925 120.1 118.425 119.1C117.825 118 117.125 117.2 116.125 116.7C115.125 116.1 114.125 115.8 112.925 115.8Z" fill="#00758D"/>
<path d="M84.425 137.7C81.425 137.7 78.725 137.1 76.325 135.8C73.925 134.5 72.025 132.8 70.625 130.5C69.225 128.3 68.625 125.7 68.625 122.8C68.625 120 69.325 117.4 70.625 115.1C72.025 112.9 73.925 111.1 76.325 109.8C78.725 108.6 81.425 107.9 84.425 107.9C87.125 107.9 89.625 108.4 91.825 109.4C94.025 110.4 95.825 111.8 97.225 113.6L91.125 119.1V119C89.425 116.8 87.325 115.7 85.025 115.7C83.025 115.7 81.425 116.3 80.225 117.6C79.025 118.9 78.425 120.5 78.425 122.7C78.425 124.9 79.025 126.5 80.225 127.8C81.425 129.1 83.025 129.7 85.025 129.7C87.425 129.7 89.425 128.6 91.125 126.4V126.3L97.225 131.8C95.825 133.6 94.025 135 91.825 136C89.625 137.2 87.125 137.7 84.425 137.7Z" fill="#00758D"/>
<path d="M156.325 137L156.225 124.3L151.325 132.6C150.625 133.7 149.425 134.5 148.025 134.5C146.725 134.5 145.525 133.8 144.825 132.7L139.925 124.8V137.1H131.125V108.7H137.425C138.425 108.7 139.325 109.2 139.825 110L148.125 123.6L156.225 110C156.725 109.2 157.625 108.6 158.625 108.6H164.925L165.025 137H156.325Z" fill="#00758D"/>
<path d="M178.225 108.7H168.525V137.1H178.225V108.7Z" fill="#00758D"/>
<path d="M188.625 137V116.1H180.325V111.4C180.325 109.8 181.625 108.6 183.125 108.6H203.725C205.325 108.6 206.525 109.9 206.525 111.4V116.1H198.225V137H188.625Z" fill="#00758D"/>
<path d="M218.425 108.7H208.725V137.1H218.425V108.7Z" fill="#00758D"/>
<path d="M238.625 134.6C237.925 134.6 237.225 134.4 236.625 134.1C236.025 133.8 235.625 133.4 235.225 132.8C234.925 132.2 234.725 131.6 234.725 130.7C234.725 129.9 234.925 129.2 235.225 128.6C235.525 128 236.025 127.6 236.625 127.3C237.225 127 237.825 126.8 238.625 126.8C239.325 126.8 240.025 127 240.625 127.3C241.225 127.6 241.625 128 242.025 128.6C242.325 129.2 242.525 129.8 242.525 130.7C242.525 131.5 242.325 132.2 242.025 132.8C241.725 133.4 241.225 133.8 240.625 134.1C240.025 134.4 239.325 134.6 238.625 134.6Z" fill="url(#paint0_radial_24_9607)"/>
<path d="M137.325 89.4L152.825 53.9C153.425 52.5 154.725 51.5 156.225 51.2L156.325 51.3C156.625 51.6 157.025 52.3 157.225 52.8L161.325 63.8L155.925 75.8L150.725 89.4H137.325Z" fill="#00758D"/>
<path d="M173.225 89.5L168.025 75.9L159.225 52.8C158.725 51.6 158.125 51.2 158.025 51.2H166.925C168.725 51.2 170.425 52.3 171.225 54L186.725 89.5H173.225Z" fill="#00758D"/>
<path d="M491.975 137.7C488.775 137.7 485.275 137.2 482.175 136.3V131.1C485.275 132.1 488.675 132.8 491.875 132.8C496.675 132.8 497.675 131.8 497.675 129C497.675 123.3 481.575 127.9 481.575 116.8C481.575 111.8 485.275 108.6 492.175 108.6C495.075 108.6 498.175 109 500.975 109.9V115C498.375 114.2 494.875 113.6 492.175 113.6C487.775 113.6 486.775 114.5 486.775 116.8C486.775 122.8 502.875 117.6 502.875 129C502.975 134.6 499.675 137.7 491.975 137.7Z" fill="#041E41"/>
<path d="M525.475 137.3L522.775 129.3H513.275L510.575 137.3H504.775L515.475 108.9H520.575L531.375 137.3H525.475ZM519.475 120.9L517.875 115.9L516.175 120.9L514.975 124.4H520.675L519.475 120.9Z" fill="#041E41"/>
<path d="M358.975 116C358.775 114.5 358.275 113.4 357.375 112.6C356.475 111.8 355.175 111.4 353.475 111.4C351.775 111.4 350.375 111.9 349.475 112.8C348.475 113.7 348.075 115.2 348.075 117.2V129.1C348.075 131.1 348.575 132.6 349.475 133.5C350.475 134.5 351.775 134.9 353.475 134.9C355.175 134.9 356.575 134.4 357.475 133.5C358.475 132.5 358.875 131.1 358.875 129.1V124.5H353.675C353.375 124.5 353.175 124.4 352.975 124.2C352.775 124 352.675 123.7 352.675 123.4C352.675 123.1 352.775 122.9 352.975 122.6C353.175 122.4 353.375 122.3 353.675 122.3H360.475C360.775 122.3 360.975 122.4 361.175 122.6C361.375 122.8 361.375 123 361.375 123.3V129.1C361.375 130.6 361.175 131.9 360.775 132.9C360.375 133.9 359.775 134.8 359.075 135.4C358.375 136.1 357.475 136.5 356.575 136.8C355.575 137.1 354.575 137.2 353.375 137.2C352.275 137.2 351.175 137.1 350.175 136.8C349.175 136.5 348.375 136 347.675 135.4C346.975 134.7 346.375 133.9 345.975 132.9C345.575 131.9 345.375 130.6 345.375 129.1V117.2C345.375 115.7 345.575 114.5 345.975 113.4C346.375 112.4 346.975 111.5 347.675 110.9C348.375 110.2 349.275 109.8 350.175 109.5C351.175 109.2 352.175 109.1 353.275 109.1C354.475 109.1 355.575 109.3 356.575 109.6C357.575 109.9 358.375 110.4 359.075 111C359.775 111.6 360.275 112.3 360.675 113.1C361.075 113.9 361.275 114.8 361.275 115.8C361.275 116.3 361.175 116.7 360.975 116.8C360.775 117 360.475 117.1 360.075 117.1C359.775 117.1 359.475 117 359.175 116.9C359.175 116.6 359.075 116.3 358.975 116Z" fill="#009BDE"/>
<path d="M366.075 109.9C366.075 109.3 366.375 109 367.075 109H373.875C374.975 109 376.075 109.1 377.075 109.4C378.075 109.6 378.975 110.1 379.675 110.7C380.475 111.3 381.075 112.1 381.475 113C381.875 114 382.175 115.2 382.175 116.6C382.175 117.8 381.975 118.8 381.675 119.7C381.375 120.6 380.975 121.3 380.375 121.9C379.875 122.5 379.175 123 378.475 123.3C377.775 123.6 376.975 123.9 376.075 124L381.975 135.4C382.075 135.5 382.175 135.7 382.175 135.9C382.175 136.2 381.975 136.5 381.675 136.8C381.375 137.1 381.075 137.2 380.675 137.2C380.375 137.2 380.075 137.1 379.875 136.8C379.675 136.5 379.475 136.2 379.275 135.9L373.375 124.4H368.475V136.2C368.475 136.5 368.375 136.8 368.075 137C367.775 137.2 367.475 137.2 367.175 137.2C366.875 137.2 366.575 137.1 366.275 137C365.975 136.8 365.875 136.6 365.875 136.2V109.9H366.075ZM368.675 111.3V122.1H373.875C375.575 122.1 376.975 121.7 378.075 120.8C379.175 120 379.675 118.6 379.675 116.6C379.675 114.7 379.175 113.3 378.075 112.5C376.975 111.7 375.575 111.3 373.875 111.3H368.675Z" fill="#009BDE"/>
<path d="M399.375 109.9C399.375 109.6 399.475 109.3 399.775 109.2C400.075 109.1 400.375 109 400.675 109C400.975 109 401.275 109.1 401.575 109.2C401.875 109.3 401.975 109.6 401.975 109.9V129.1C401.975 130.6 401.775 131.9 401.375 132.9C400.975 133.9 400.375 134.8 399.675 135.4C398.975 136.1 398.075 136.5 397.075 136.8C396.075 137.1 395.075 137.2 393.875 137.2C392.775 137.2 391.675 137.1 390.675 136.8C389.675 136.5 388.875 136 388.075 135.4C387.375 134.7 386.775 133.9 386.375 132.9C385.975 131.9 385.775 130.6 385.775 129.1V109.9C385.775 109.6 385.875 109.3 386.175 109.2C386.475 109.1 386.775 109 387.075 109C387.375 109 387.675 109.1 387.975 109.2C388.275 109.3 388.375 109.6 388.375 109.9V129.1C388.375 131.1 388.875 132.6 389.875 133.5C390.875 134.5 392.175 134.9 393.975 134.9C395.675 134.9 397.075 134.4 398.075 133.5C399.075 132.5 399.575 131.1 399.575 129.1V109.9H399.375Z" fill="#009BDE"/>
<path d="M407.075 109.9C407.075 109.3 407.475 109 408.175 109H415.275C416.375 109 417.375 109.1 418.375 109.4C419.375 109.7 420.175 110.2 420.875 110.8C421.575 111.4 422.175 112.3 422.575 113.3C422.975 114.3 423.175 115.6 423.175 117.1V117.5C423.175 119 422.975 120.2 422.575 121.3C422.175 122.3 421.575 123.2 420.875 123.8C420.175 124.5 419.275 124.9 418.375 125.2C417.375 125.5 416.375 125.6 415.175 125.6H409.575V136C409.575 136.3 409.475 136.6 409.175 136.8C408.875 137 408.575 137 408.275 137C407.975 137 407.675 136.9 407.375 136.8C407.075 136.6 406.975 136.4 406.975 136V109.9H407.075ZM409.575 111.3V123.5H415.075C416.775 123.5 418.175 123 419.075 122.1C420.075 121.1 420.475 119.7 420.475 117.7V117.2C420.475 115.2 419.975 113.7 419.075 112.8C418.075 111.8 416.775 111.4 415.075 111.4H409.575V111.3Z" fill="#009BDE"/>
<path d="M434.475 137.3C433.375 137.3 432.275 137.2 431.275 136.9C430.275 136.6 429.475 136.1 428.775 135.5C428.075 134.8 427.475 134 427.075 133C426.675 132 426.475 130.7 426.475 129.2V117.3C426.475 115.8 426.675 114.6 427.075 113.5C427.475 112.5 428.075 111.6 428.775 111C429.475 110.3 430.375 109.9 431.275 109.6C432.275 109.3 433.275 109.2 434.475 109.2C435.575 109.2 436.675 109.3 437.675 109.6C438.675 109.9 439.475 110.4 440.175 111C440.875 111.7 441.475 112.5 441.875 113.5C442.275 114.5 442.475 115.8 442.475 117.3V129.2C442.475 130.7 442.275 132 441.875 133C441.475 134 440.875 134.9 440.175 135.5C439.475 136.2 438.575 136.6 437.675 136.9C436.675 137.2 435.575 137.3 434.475 137.3ZM439.975 117.2C439.975 115.2 439.475 113.7 438.575 112.8C437.575 111.8 436.275 111.4 434.575 111.4C432.875 111.4 431.475 111.9 430.575 112.8C429.575 113.7 429.175 115.2 429.175 117.2V129.1C429.175 131.1 429.675 132.6 430.575 133.6C431.575 134.6 432.875 135 434.575 135C436.275 135 437.675 134.5 438.575 133.6C439.575 132.7 439.975 131.2 439.975 129.1V117.2Z" fill="#009BDE"/>
<path d="M472.375 108.9L463.375 124.2L454.375 108.9H449.675V137.3H455.075V128.8V123.9V120L461.975 131H464.775L469.575 123.1L471.575 120V123.9V128.4V137.3H476.975V108.9H472.375Z" fill="#041E41"/>
<path d="M465.2 84C466.5 83.5 467.4 82.3 467.4 80.9V67.5C467.4 68.9 466.5 70.1 465.2 70.6L438.9 79.9V93.4L465.2 84Z" fill="#009BDE"/>
<path d="M465.2 64.4C466.5 64.8 467.4 66.1 467.4 67.5C467.4 68.9 466.5 70.1 465.2 70.6L454.9 74.3L438.9 68.6V55L465.2 64.4Z" fill="url(#paint1_linear_24_9607)"/>
<path d="M409.2 77.9L435.5 68.6V55L409.2 64.3C407.9 64.8 407 66 407 67.4V80.9C407 79.5 407.9 78.3 409.2 77.9Z" fill="#009BDE"/>
<path d="M409.2 84C407.9 83.6 407 82.3 407 80.9C407 79.5 407.9 78.3 409.2 77.8L419.5 74.1L435.5 79.8V93.3L409.2 84Z" fill="url(#paint2_linear_24_9607)"/>
<path d="M300 40V145.7" stroke="#B1B3B6" stroke-width="0.75" stroke-miterlimit="10" stroke-linecap="round" stroke-linejoin="round"/>
<defs>
<radialGradient id="paint0_radial_24_9607" cx="0" cy="0" r="1" gradientUnits="userSpaceOnUse" gradientTransform="translate(239.125 126.095) rotate(-89.8562) scale(15.3411 16.2432)">
<stop stop-color="#77777A"/>
<stop offset="1" stop-color="#333E48"/>
</radialGradient>
<linearGradient id="paint1_linear_24_9607" x1="462.776" y1="79.1721" x2="432.729" y2="42.3122" gradientUnits="userSpaceOnUse">
<stop offset="0.1494" stop-color="#001970"/>
<stop offset="0.1509" stop-color="#001A71"/>
<stop offset="0.2171" stop-color="#003C8E"/>
<stop offset="0.2891" stop-color="#0059A7"/>
<stop offset="0.3696" stop-color="#0071BB"/>
<stop offset="0.4605" stop-color="#0084CB"/>
<stop offset="0.568" stop-color="#0091D6"/>
<stop offset="0.7079" stop-color="#0098DC"/>
<stop offset="1" stop-color="#009BDE"/>
</linearGradient>
<linearGradient id="paint2_linear_24_9607" x1="411.624" y1="69.2177" x2="441.673" y2="106.081" gradientUnits="userSpaceOnUse">
<stop offset="0.1494" stop-color="#001970"/>
<stop offset="0.1509" stop-color="#001A71"/>
<stop offset="0.2171" stop-color="#003C8E"/>
<stop offset="0.2891" stop-color="#0059A7"/>
<stop offset="0.3696" stop-color="#0071BB"/>
<stop offset="0.4605" stop-color="#0084CB"/>
<stop offset="0.568" stop-color="#0091D6"/>
<stop offset="0.7079" stop-color="#0098DC"/>
<stop offset="1" stop-color="#009BDE"/>
</linearGradient>
</defs>
</svg>
