<svg width="28" height="28" viewBox="0 0 28 28" fill="none" xmlns="http://www.w3.org/2000/svg">
<path d="M14 0C6.2678 0 0 6.2678 0 14C0 21.7322 6.2678 28 14 28C21.7322 28 28 21.7322 28 14C28 6.2678 21.7322 0 14 0ZM21.9898 10.7898L12.1898 20.5898C11.9168 20.8628 11.5584 21 11.2 21C10.8416 21 10.4832 20.8628 10.2102 20.5898L6.0102 16.3898C5.4628 15.8424 5.4628 14.9576 6.0102 14.4102C6.5576 13.8628 7.4424 13.8628 7.9898 14.4102L11.2 17.6204L20.0102 8.8102C20.5576 8.2628 21.4424 8.2628 21.9898 8.8102C22.5372 9.3576 22.5372 10.2424 21.9898 10.7898Z" fill="#27BDBE"/>
</svg>
